<svg fill="none" height="32" viewBox="0 0 32 32" width="32" xmlns="http://www.w3.org/2000/svg"><path d="m2 12.1333c0-3.54697 0-5.32047.69029-6.67524.6072-1.19169 1.57608-2.16057 2.76777-2.76777 1.35477-.69029 3.12827-.69029 6.67524-.69029h7.7334c3.547 0 5.3205 0 6.6752.69029 1.1917.6072 2.1606 1.57608 2.7678 2.76777.6903 1.35477.6903 3.12827.6903 6.67524v7.7334c0 3.547 0 5.3205-.6903 6.6752-.6072 1.1917-1.5761 2.1606-2.7678 2.7678-1.3547.6903-3.1282.6903-6.6752.6903h-7.7334c-3.54697 0-5.32047 0-6.67524-.6903-1.19169-.6072-2.16057-1.5761-2.76777-2.7678-.69029-1.3547-.69029-3.1282-.69029-6.6752z" fill="#001e36"/><g fill="#31a8ff"><path d="m16.7052 22.6201h-7.40067c-.12527 0-.18788-.0707-.18782-.2119v-12.2333c-.01386-.0995.07204-.18761.16907-.1734h2.29162c.0754-.01089.1419.0587.1314.1349v10.0563h5.3909c.1126 0 .1565.0578.1314.1734l-.3381 2.0806c-.0029.1048-.0889.1723-.1878.1734z"/><path d="m18.5853 13.0319h2.0474c.1129.001.2143.081.2442.1927.15.3417.1685.7537.1691 1.1226.3511-.4193.7745-.7687 1.249-1.0306.509-.2954 1.086-.4451 1.6707-.4335.097-.0142.1829.0739.169.1734v2.3311c0 .09-.0628.1348-.1878.1348-.8666-.0613-2.2158.1487-2.8455.8477v6.0611c0 .1156-.0501.1734-.1503.1734h-2.1967c-.1079.0158-.2031-.0838-.1879-.1927v-6.5812c0-.8819.0187-1.7903-.1127-2.6639-.0202-.0804.0549-.1551.1315-.1349z"/></g></svg>